<?xml version="1.0" encoding="utf-8"?>
<!-- Generator: Adobe Illustrator 19.0.0, SVG Export Plug-In . SVG Version: 6.00 Build 0)  -->
<svg version="1.1" id="Capa_1" xmlns="http://www.w3.org/2000/svg" xmlns:xlink="http://www.w3.org/1999/xlink" x="0px" y="0px"
	 viewBox="0 0 100 20" style="enable-background:new 0 0 100 20;" xml:space="preserve">
<style type="text/css">
	.st0{opacity:0.5;}
	.st1{fill:#FFFFFF;}
	.st2{fill:#9BB9B7;}
</style>
<g id="XMLID_2_">
	<g id="XMLID_3_">
		<g id="XMLID_97_" class="st0">
			<g id="XMLID_98_">
				<path id="XMLID_99_" class="st1" d="M53.5,1l4.1,10.9h-2.5l-0.8-2.4h-4.1l-0.9,2.4h-2.4L51,1H53.5z M53.6,7.7l-1.4-4h0l-1.4,4
					H53.6z"/>
			</g>
		</g>
		<g id="XMLID_95_">
			<polyline id="XMLID_96_" class="st1" points="50.2,9.5 49.3,11.9 46.9,11.9 51,1 53.1,1 			"/>
		</g>
		<g id="XMLID_86_" class="st0">
			<g id="XMLID_106_">
				<g id="XMLID_107_">
					<path id="XMLID_108_" class="st1" d="M65.7,11.9l-4.5-7.3h0v7.3h-2.2V1h2.4l4.6,7.3h0V1h2.2v10.9"/>
				</g>
			</g>
		</g>
		<g id="XMLID_82_" class="st0">
			<g id="XMLID_83_">
				<path id="XMLID_84_" class="st2" d="M5,6.1v5.5H2.6V6.1H5z"/>
			</g>
		</g>
		<g id="XMLID_78_" class="st0">
			<g id="XMLID_79_">
				<path id="XMLID_80_" class="st1" d="M33.2,0.8v10.8h-2.4V0.8H33.2z"/>
			</g>
		</g>
		<g id="XMLID_74_" class="st0">
			<g id="XMLID_75_">
				<path id="XMLID_76_" class="st1" d="M9.9,0.7L14.4,8h0V0.7h2.2v10.9h-2.4L9.7,4.3h0v7.3H7.5V0.7H9.9z"/>
			</g>
		</g>
		<g id="XMLID_69_" class="st0">
			<g id="XMLID_70_">
				<path id="XMLID_71_" class="st1" d="M23.9,0.7c0.7,0,1.4,0.1,2,0.3c0.6,0.2,1.1,0.6,1.6,1c0.4,0.4,0.8,1,1,1.7
					c0.2,0.7,0.4,1.5,0.4,2.4c0,0.8-0.1,1.5-0.3,2.2C28.3,9,28,9.5,27.6,10c-0.4,0.5-0.9,0.9-1.5,1.2c-0.6,0.3-1.3,0.4-2.2,0.4h-4.7
					V0.7H23.9z M23.7,9.6c0.3,0,0.7-0.1,1-0.2c0.3-0.1,0.6-0.3,0.9-0.6c0.3-0.3,0.5-0.6,0.6-1c0.2-0.4,0.2-0.9,0.2-1.5
					c0-0.6-0.1-1-0.2-1.5C26.2,4.4,26,4,25.8,3.7c-0.2-0.3-0.6-0.6-1-0.7c-0.4-0.2-0.9-0.3-1.5-0.3h-1.7v6.9H23.7z"/>
			</g>
		</g>
		<g id="XMLID_65_" class="st0">
			<g id="XMLID_66_">
				<path id="XMLID_67_" class="st1" d="M43.3,3.9c-0.1-0.2-0.3-0.4-0.5-0.6c-0.2-0.2-0.5-0.3-0.7-0.4c-0.3-0.1-0.6-0.1-0.8-0.1
					c-0.5,0-1,0.1-1.4,0.3c-0.4,0.2-0.7,0.5-0.9,0.8c-0.2,0.4-0.4,0.8-0.5,1.2c-0.1,0.4-0.2,0.9-0.2,1.4c0,0.5,0.1,0.9,0.2,1.3
					c0.1,0.4,0.3,0.8,0.5,1.2c0.2,0.3,0.5,0.6,0.9,0.8c0.4,0.2,0.8,0.3,1.4,0.3c0.7,0,1.3-0.2,1.7-0.7c0.4-0.4,0.7-1,0.8-1.8H46
					C46,8.4,45.8,9,45.6,9.6c-0.3,0.6-0.6,1-1,1.4c-0.4,0.4-0.9,0.7-1.5,0.9c-0.6,0.2-1.2,0.3-1.8,0.3c-0.8,0-1.6-0.1-2.3-0.4
					c-0.7-0.3-1.2-0.7-1.7-1.2c-0.5-0.5-0.8-1.1-1.1-1.8c-0.2-0.7-0.4-1.4-0.4-2.2c0-0.8,0.1-1.6,0.4-2.3c0.2-0.7,0.6-1.3,1.1-1.8
					c0.5-0.5,1-0.9,1.7-1.2c0.7-0.3,1.4-0.4,2.3-0.4c0.6,0,1.2,0.1,1.7,0.3c0.5,0.2,1,0.4,1.4,0.8c0.4,0.3,0.8,0.7,1,1.2
					c0.3,0.5,0.4,1,0.5,1.7h-2.3C43.6,4.4,43.5,4.2,43.3,3.9z"/>
			</g>
		</g>
		<g id="XMLID_60_" class="st0">
			<g id="XMLID_61_">
				<path id="XMLID_62_" class="st1" d="M75.3,1c0.7,0,1.4,0.1,2,0.3c0.6,0.2,1.1,0.6,1.6,1c0.4,0.4,0.8,1,1,1.7
					c0.2,0.7,0.4,1.5,0.4,2.4c0,0.8-0.1,1.5-0.3,2.2c-0.2,0.7-0.5,1.3-0.9,1.7c-0.4,0.5-0.9,0.9-1.5,1.2c-0.6,0.3-1.3,0.4-2.2,0.4
					h-4.7V1H75.3z M75.1,9.9c0.3,0,0.7-0.1,1-0.2c0.3-0.1,0.6-0.3,0.9-0.6c0.3-0.3,0.5-0.6,0.6-1c0.2-0.4,0.2-0.9,0.2-1.5
					c0-0.6-0.1-1-0.2-1.5c-0.1-0.4-0.3-0.8-0.5-1.1c-0.2-0.3-0.6-0.6-1-0.7C75.8,3.1,75.3,3,74.7,3H73v6.9H75.1z"/>
			</g>
		</g>
		<g id="XMLID_49_" class="st0">
			<g id="XMLID_118_">
				<g id="XMLID_119_">
					<path id="XMLID_120_" class="st1" d="M82.2,4.3c0.2-0.7,0.6-1.3,1.1-1.8c0.5-0.5,1-0.9,1.7-1.2c0.7-0.3,1.4-0.4,2.3-0.4
						c0.8,0,1.6,0.1,2.3,0.4c0.7,0.3,1.2,0.7,1.7,1.2c0.5,0.5,0.8,1.1,1.1,1.8c0.2,0.7,0.4,1.5,0.4,2.3c0,0.8-0.1,1.5-0.4,2.2
						c-0.2,0.7-0.6,1.3-1.1,1.8c-0.5,0.5-1,0.9-1.7,1.2c-0.7,0.3-1.4,0.4-2.3,0.4c-0.8,0-1.6-0.1-2.3-0.4c-0.7-0.3-1.2-0.7-1.7-1.2
						c-0.5-0.5-0.8-1.1-1.1-1.8c-0.2-0.7-0.4-1.4-0.4-2.2C81.8,5.7,81.9,5,82.2,4.3z M84.4,7.9c0.1,0.4,0.3,0.8,0.5,1.2
						c0.2,0.3,0.5,0.6,0.9,0.8c0.4,0.2,0.8,0.3,1.4,0.3c0.5,0,1-0.1,1.4-0.3c0.4-0.2,0.7-0.5,0.9-0.8c0.2-0.3,0.4-0.7,0.5-1.2
						c0.1-0.4,0.2-0.9,0.2-1.3c0-0.5-0.1-0.9-0.2-1.4c-0.1-0.4-0.3-0.8-0.5-1.2c-0.2-0.4-0.5-0.6-0.9-0.8c-0.4-0.2-0.8-0.3-1.4-0.3
						c-0.5,0-1,0.1-1.4,0.3c-0.4,0.2-0.7,0.5-0.9,0.8c-0.2,0.4-0.4,0.8-0.5,1.2c-0.1,0.4-0.2,0.9-0.2,1.4C84.2,7,84.3,7.4,84.4,7.9z
						"/>
				</g>
			</g>
		</g>
		<g id="XMLID_32_">
			<g id="XMLID_54_">
				<g id="XMLID_55_">
					<polygon id="XMLID_87_" class="st1" points="1,5.8 3.8,3 6.5,5.8 6.5,3.5 3.8,0.7 1,3.5 					"/>
				</g>
			</g>
		</g>
		<g id="XMLID_23_">
			<g id="XMLID_27_">
				<path id="XMLID_28_" class="st1" d="M73,11.9h-2.4V1H73 M73,3v6.9"/>
			</g>
		</g>
		<g id="XMLID_18_">
			<g id="XMLID_19_">
				<path id="XMLID_21_" class="st1" d="M7.5,0.7h2.4L14.4,8l2.2,3.6h-2.4L9.7,4.3h0L7.5,0.7z"/>
			</g>
		</g>
		<g id="XMLID_13_">
			<g id="XMLID_14_">
				<path id="XMLID_15_" class="st1" d="M21.5,11.6h-2.4V0.7h2.4 M21.6,2.7v6.9"/>
			</g>
		</g>
		<g id="XMLID_9_">
			<g id="XMLID_10_">
				<path id="XMLID_11_" class="st1" d="M5,6.1v5.5H2.6V6.1H5z"/>
			</g>
		</g>
		<g id="XMLID_4_">
			<g id="XMLID_5_">
				<path id="XMLID_6_" class="st1" d="M87.2,19.6l-2.9-2.9v-2.6l2.9,2.9l2.9-2.9v2.6L87.2,19.6z M84.5,16.7l2.7,2.7l2.7-2.7v-2
					l-2.7,2.7l-2.7-2.7V16.7z"/>
			</g>
		</g>
	</g>
</g>
</svg>
