<?xml version="1.0" encoding="utf-8"?>
<!-- Generator: Adobe Illustrator 19.0.0, SVG Export Plug-In . SVG Version: 6.00 Build 0)  -->
<svg version="1.1" id="Capa_1" xmlns="http://www.w3.org/2000/svg" xmlns:xlink="http://www.w3.org/1999/xlink" x="0px" y="0px"
	 viewBox="0 0 400 90" style="enable-background:new 0 0 400 90;" xml:space="preserve">
<style type="text/css">
	.st0{fill:#C04539;}
	.st1{opacity:0.5;}
	.st2{fill:#9CBAB8;}
</style>
<g id="XMLID_25_">
	<g id="XMLID_90_">
		<g id="XMLID_91_">
			<path id="XMLID_92_" class="st0" d="M358.4,85.1l-10.7-10.7v-9.9l10.7,10.7L369,64.6v9.9L358.4,85.1z M348.5,74.1l9.9,9.9
				l9.9-9.9v-7.6l-9.9,9.9l-9.9-9.9V74.1z"/>
		</g>
	</g>
	<g id="XMLID_26_">
		<g id="XMLID_85_" class="st1">
			<g id="XMLID_86_">
				<path id="XMLID_87_" class="st2" d="M232.9,15.9l15.2,40.6h-9.3l-3.1-9h-15.2l-3.2,9h-9l15.4-40.6H232.9z M233.4,40.8l-5.1-14.9
					h-0.1l-5.3,14.9H233.4z"/>
			</g>
		</g>
		<g id="XMLID_83_">
			<polyline id="XMLID_19_" class="st2" points="220.5,47.5 217.4,56.5 208.4,56.5 223.7,15.9 231.3,15.9 			"/>
		</g>
		<g id="XMLID_79_" class="st1">
			<g id="XMLID_80_">
				<path id="XMLID_81_" class="st2" d="M278.4,56.5l-16.9-27.2h-0.1v27.2H253V15.9h8.9l17,27.3h0.1V15.9h8.4v40.6"/>
			</g>
		</g>
		<g id="XMLID_75_" class="st1">
			<g id="XMLID_76_">
				<path id="XMLID_77_" class="st2" d="M52.3,34.9v20.3h-8.9V34.9H52.3z"/>
			</g>
		</g>
		<g id="XMLID_71_" class="st1">
			<g id="XMLID_72_">
				<path id="XMLID_73_" class="st2" d="M157.5,14.9v40.4h-8.9V14.9H157.5z"/>
			</g>
		</g>
		<g id="XMLID_67_" class="st1">
			<g id="XMLID_68_">
				<path id="XMLID_69_" class="st2" d="M70.5,14.6l17,27.3h0.1V14.6h8.4v40.6H87L70.1,28.1h-0.1v27.2h-8.4V14.6H70.5z"/>
			</g>
		</g>
		<g id="XMLID_62_" class="st1">
			<g id="XMLID_63_">
				<path id="XMLID_64_" class="st2" d="M122.7,14.6c2.6,0,5.1,0.4,7.3,1.3c2.3,0.8,4.2,2.1,5.9,3.8c1.7,1.7,2.9,3.8,3.9,6.3
					c0.9,2.5,1.4,5.4,1.4,8.8c0,3-0.4,5.7-1.1,8.2c-0.8,2.5-1.9,4.7-3.4,6.5c-1.5,1.8-3.5,3.3-5.7,4.3c-2.3,1-5,1.6-8.1,1.6h-17.5
					V14.6H122.7z M122.1,47.8c1.3,0,2.5-0.2,3.8-0.6c1.2-0.4,2.3-1.1,3.2-2.1c0.9-1,1.7-2.2,2.3-3.8c0.6-1.6,0.9-3.5,0.9-5.7
					c0-2-0.2-3.9-0.6-5.5s-1.1-3.1-2-4.2c-0.9-1.2-2.1-2.1-3.6-2.7c-1.5-0.6-3.3-0.9-5.5-0.9h-6.4v25.6H122.1z"/>
			</g>
		</g>
		<g id="XMLID_58_" class="st1">
			<g id="XMLID_59_">
				<path id="XMLID_60_" class="st2" d="M195.1,26.7c-0.5-0.9-1.2-1.6-2-2.2c-0.8-0.6-1.7-1.1-2.7-1.5c-1-0.4-2.1-0.5-3.2-0.5
					c-2,0-3.7,0.4-5.1,1.2c-1.4,0.8-2.5,1.8-3.4,3.1c-0.9,1.3-1.5,2.8-1.9,4.5c-0.4,1.7-0.6,3.4-0.6,5.2c0,1.7,0.2,3.4,0.6,5
					c0.4,1.6,1,3.1,1.9,4.4c0.9,1.3,2,2.3,3.4,3.1c1.4,0.8,3.1,1.2,5.1,1.2c2.7,0,4.9-0.8,6.4-2.5c1.5-1.7,2.5-3.9,2.8-6.6h8.7
					c-0.2,2.5-0.8,4.8-1.8,6.9c-0.9,2-2.2,3.8-3.8,5.2c-1.6,1.4-3.4,2.5-5.5,3.3c-2.1,0.8-4.4,1.1-6.9,1.1c-3.1,0-5.9-0.5-8.4-1.6
					c-2.5-1.1-4.6-2.6-6.3-4.5c-1.7-1.9-3-4.1-3.9-6.7c-0.9-2.6-1.4-5.3-1.4-8.3c0-3,0.5-5.9,1.4-8.5c0.9-2.6,2.2-4.9,3.9-6.8
					c1.7-1.9,3.8-3.5,6.3-4.6c2.5-1.1,5.3-1.7,8.4-1.7c2.2,0,4.4,0.3,6.3,1c2,0.6,3.8,1.6,5.3,2.8c1.6,1.2,2.9,2.8,3.9,4.6
					c1,1.8,1.7,3.9,1.9,6.3h-8.7C196,28.5,195.6,27.6,195.1,26.7z"/>
			</g>
		</g>
		<g id="XMLID_53_" class="st1">
			<g id="XMLID_54_">
				<path id="XMLID_55_" class="st2" d="M314.1,15.9c2.6,0,5.1,0.4,7.3,1.3c2.3,0.8,4.2,2.1,5.9,3.8c1.7,1.7,2.9,3.8,3.9,6.3
					c0.9,2.5,1.4,5.4,1.4,8.8c0,3-0.4,5.7-1.1,8.2c-0.8,2.5-1.9,4.7-3.4,6.5c-1.5,1.8-3.5,3.3-5.7,4.3c-2.3,1-5,1.6-8.1,1.6h-17.5
					V15.9H314.1z M313.5,49c1.3,0,2.5-0.2,3.8-0.6c1.2-0.4,2.3-1.1,3.2-2.1c0.9-1,1.7-2.2,2.3-3.8c0.6-1.6,0.9-3.5,0.9-5.7
					c0-2-0.2-3.9-0.6-5.5c-0.4-1.7-1.1-3.1-2-4.2c-0.9-1.2-2.1-2.1-3.6-2.7c-1.5-0.6-3.3-0.9-5.5-0.9h-6.4V49H313.5z"/>
			</g>
		</g>
		<g id="XMLID_48_" class="st1">
			<g id="XMLID_49_">
				<path id="XMLID_50_" class="st2" d="M339.7,27.9c0.9-2.6,2.2-4.9,3.9-6.8c1.7-1.9,3.8-3.5,6.3-4.6c2.5-1.1,5.3-1.7,8.4-1.7
					c3.1,0,6,0.6,8.4,1.7c2.5,1.1,4.6,2.6,6.3,4.6c1.7,1.9,3,4.2,3.9,6.8c0.9,2.6,1.4,5.4,1.4,8.5c0,3-0.5,5.7-1.4,8.3
					c-0.9,2.6-2.2,4.8-3.9,6.7c-1.7,1.9-3.8,3.4-6.3,4.5c-2.5,1.1-5.3,1.6-8.4,1.6c-3.1,0-5.9-0.5-8.4-1.6c-2.5-1.1-4.6-2.6-6.3-4.5
					c-1.7-1.9-3-4.1-3.9-6.7c-0.9-2.6-1.4-5.3-1.4-8.3C338.4,33.3,338.8,30.5,339.7,27.9z M347.9,41.3c0.4,1.6,1,3.1,1.9,4.4
					c0.9,1.3,2,2.3,3.4,3.1c1.4,0.8,3.1,1.2,5.1,1.2c2,0,3.7-0.4,5.1-1.2c1.4-0.8,2.5-1.8,3.4-3.1c0.9-1.3,1.5-2.7,1.9-4.4
					c0.4-1.6,0.6-3.3,0.6-5c0-1.8-0.2-3.5-0.6-5.2c-0.4-1.7-1-3.2-1.9-4.5c-0.9-1.3-2-2.4-3.4-3.1c-1.4-0.8-3.1-1.2-5.1-1.2
					c-2,0-3.7,0.4-5.1,1.2c-1.4,0.8-2.5,1.8-3.4,3.1c-0.9,1.3-1.5,2.8-1.9,4.5c-0.4,1.7-0.6,3.4-0.6,5.2
					C347.3,38.1,347.5,39.7,347.9,41.3z"/>
			</g>
		</g>
		<g id="XMLID_45_">
			<g id="XMLID_46_">
				<polygon id="XMLID_7_" class="st0" points="37.5,33.6 47.8,23.4 58.1,33.6 58.1,24.9 47.8,14.6 37.5,24.9 				"/>
			</g>
		</g>
		<g id="XMLID_40_">
			<g id="XMLID_41_">
				<path id="XMLID_42_" class="st2" d="M305.4,56.5h-8.8V15.9h8.8 M305.5,23.4V49"/>
			</g>
		</g>
		<g id="XMLID_36_">
			<g id="XMLID_37_">
				<path id="XMLID_38_" class="st2" d="M61.6,14.6h8.9l17.1,27.3l8.4,13.4H87L70.1,28.1h-0.1L61.6,14.6z"/>
			</g>
		</g>
		<g id="XMLID_31_">
			<g id="XMLID_32_">
				<path id="XMLID_33_" class="st2" d="M114,55.4h-8.8V14.8h8.8 M114.1,22.3v25.6"/>
			</g>
		</g>
		<g id="XMLID_27_">
			<g id="XMLID_28_">
				<path id="XMLID_29_" class="st2" d="M52.3,34.9v20.3h-8.9V34.9H52.3z"/>
			</g>
		</g>
	</g>
</g>
</svg>
