<?xml version="1.0" encoding="utf-8"?>
<!-- Generator: Adobe Illustrator 19.0.0, SVG Export Plug-In . SVG Version: 6.00 Build 0)  -->
<svg version="1.1" id="Capa_1" xmlns="http://www.w3.org/2000/svg" xmlns:xlink="http://www.w3.org/1999/xlink" x="0px" y="0px"
	 viewBox="0 0 900 900" style="enable-background:new 0 0 900 900;" xml:space="preserve">
<style type="text/css">
    
    	
    
	.st0{opacity:0.5;}
	.st1{fill:#9BB9B7;}
	.st2{fill:#BD4539;}
	.st3{fill:#030104;}
  
    

</style>
<g id="XMLID_42_">
	<g id="XMLID_150_" class="st0">
		<g id="XMLID_151_">
			<path id="XMLID_152_" class="st1" d="M466.6,303.9l97.5,260.7h-59.5l-19.7-58.1h-97.5l-20.4,58.1h-57.7l98.6-260.7H466.6z
				 M469.9,463.9L437,368.2h-0.7l-34,95.7H469.9z"/>
		</g>
	</g>
	<g id="XMLID_148_">
		<polyline id="XMLID_38_" class="st1" points="387.3,506.6 366.9,564.7 309.2,564.7 407.8,303.9 456.4,303.9 		"/>
	</g>
	<g id="XMLID_144_" class="st0">
		<g id="XMLID_145_">
			<path id="XMLID_146_" class="st1" d="M652.8,303.9l108.8,174.9h0.7V303.9H816v458.5l-57.4,0.7l0-198.5L650.3,390.1h-0.7v174.5
				h-53.7V303.9H652.8z"/>
		</g>
	</g>
	<g id="XMLID_140_" class="st0">
		<g id="XMLID_141_">
			<path id="XMLID_142_" class="st1" d="M142.7,140v130.5H85.4V140H142.7z"/>
		</g>
	</g>
	<g id="XMLID_136_" class="st0">
		<g id="XMLID_137_">
			<path id="XMLID_138_" class="st1" d="M817.5,11.5v259h-57.3v-259H817.5z"/>
		</g>
	</g>
	<g id="XMLID_132_" class="st0">
		<g id="XMLID_133_">
			<path id="XMLID_134_" class="st1" d="M259.2,9.8L368,184.7h0.7V9.8h53.7v260.7h-57.3L256.6,96h-0.7v174.5h-53.7V9.8H259.2z"/>
		</g>
	</g>
	<g id="XMLID_127_" class="st0">
		<g id="XMLID_128_">
			<path id="XMLID_129_" class="st1" d="M594.4,9.8c16.8,0,32.4,2.7,46.9,8c14.5,5.4,27,13.4,37.6,24.1
				c10.6,10.7,18.9,24.1,24.8,40.2c6,16.1,8.9,34.9,8.9,56.6c0,19-2.4,36.5-7.3,52.6c-4.9,16.1-12.2,29.9-22.1,41.6
				c-9.9,11.7-22.2,20.9-36.9,27.6c-14.7,6.7-32.1,10-52,10H481.9V9.8H594.4z M590.4,222.3c8.3,0,16.3-1.3,24.1-4
				c7.8-2.7,14.7-7.1,20.8-13.3c6.1-6.2,11-14.3,14.6-24.3c3.7-10,5.5-22.1,5.5-36.5c0-13.1-1.3-25-3.8-35.6s-6.8-19.7-12.6-27.2
				c-5.8-7.5-13.6-13.3-23.2-17.3c-9.6-4-21.5-6-35.6-6h-40.9v164.3H590.4z"/>
		</g>
	</g>
	<g id="XMLID_123_" class="st0">
		<g id="XMLID_124_">
			<path id="XMLID_125_" class="st1" d="M224.1,373.5c-3.4-5.5-7.7-10.3-12.8-14.4c-5.1-4.1-10.9-7.4-17.3-9.7
				c-6.5-2.3-13.2-3.5-20.3-3.5c-12.9,0-23.9,2.5-32.9,7.5c-9,5-16.3,11.7-21.9,20.1c-5.6,8.4-9.7,18-12.2,28.7
				c-2.6,10.7-3.8,21.8-3.8,33.2c0,11,1.3,21.6,3.8,32c2.6,10.3,6.6,19.7,12.2,27.9c5.6,8.3,12.9,14.9,21.9,19.9
				c9,5,20,7.5,32.9,7.5c17.5,0,31.2-5.4,41.1-16.1c9.9-10.7,15.9-24.8,18.1-42.4h55.5c-1.5,16.3-5.2,31-11.3,44.2
				C271,521.6,263,532.8,253,542c-10,9.3-21.7,16.3-35.1,21.2c-13.4,4.9-28.1,7.3-44.2,7.3c-20,0-37.9-3.5-53.9-10.4
				c-15.9-6.9-29.4-16.5-40.3-28.7c-11-12.2-19.4-26.5-25.2-42.9c-5.8-16.4-8.8-34.1-8.8-53.1c0-19.5,2.9-37.5,8.8-54.2
				c5.8-16.7,14.2-31.2,25.2-43.6c11-12.4,24.4-22.1,40.3-29.2c15.9-7.1,33.9-10.6,53.9-10.6c14.4,0,27.9,2.1,40.7,6.2
				c12.8,4.1,24.2,10.2,34.3,18.1c10.1,7.9,18.4,17.7,25,29.4c6.6,11.7,10.7,25.1,12.4,40.2h-55.5C229.7,385,227.5,379,224.1,373.5z
				"/>
		</g>
	</g>
	<g id="XMLID_118_" class="st0">
		<g id="XMLID_119_">
			<path id="XMLID_120_" class="st1" d="M183.6,618.4c16.8,0,32.4,2.7,46.9,8c14.5,5.4,27,13.4,37.6,24.1
				c10.6,10.7,18.9,24.1,24.8,40.2c6,16.1,8.9,34.9,8.9,56.6c0,19-2.4,36.5-7.3,52.6c-4.9,16.1-12.2,29.9-22.1,41.6
				c-9.9,11.7-22.2,20.9-36.9,27.6c-14.7,6.7-32.1,10-52,10H71.1V618.4H183.6z M179.6,830.9c8.3,0,16.3-1.3,24.1-4
				c7.8-2.7,14.7-7.1,20.8-13.3c6.1-6.2,11-14.3,14.6-24.3c3.7-10,5.5-22.1,5.5-36.5c0-13.1-1.3-25-3.8-35.6
				c-2.6-10.6-6.8-19.7-12.6-27.2c-5.8-7.5-13.6-13.3-23.2-17.3c-9.6-4-21.5-6-35.6-6h-40.9v164.3H179.6z"/>
		</g>
	</g>
	<g id="XMLID_113_" class="st0">
		<g id="XMLID_114_">
			<path id="XMLID_115_" class="st1" d="M348.3,695.6c5.8-16.7,14.2-31.2,25.2-43.6c11-12.4,24.4-22.1,40.3-29.2
				c15.9-7.1,33.9-10.6,53.9-10.6c20.2,0,38.2,3.5,54,10.6c15.8,7.1,29.2,16.8,40.2,29.2c11,12.4,19.4,27,25.2,43.6
				c5.8,16.7,8.8,34.8,8.8,54.2c0,19-2.9,36.7-8.8,53.1c-5.8,16.4-14.2,30.7-25.2,42.9c-11,12.2-24.3,21.7-40.2,28.7
				c-15.8,6.9-33.8,10.4-54,10.4c-20,0-37.9-3.5-53.9-10.4c-15.9-6.9-29.4-16.5-40.3-28.7c-11-12.2-19.4-26.5-25.2-42.9
				c-5.8-16.4-8.8-34.1-8.8-53.1C339.5,730.4,342.4,712.3,348.3,695.6z M400.7,781.8c2.6,10.3,6.6,19.7,12.2,27.9
				c5.6,8.3,12.9,14.9,21.9,19.9c9,5,20,7.5,32.9,7.5c12.9,0,23.9-2.5,32.9-7.5c9-5,16.3-11.6,21.9-19.9c5.6-8.3,9.7-17.6,12.2-27.9
				c2.6-10.3,3.8-21,3.8-32c0-11.4-1.3-22.5-3.8-33.2c-2.6-10.7-6.6-20.3-12.2-28.7c-5.6-8.4-12.9-15.1-21.9-20.1
				c-9-5-20-7.5-32.9-7.5c-12.9,0-23.9,2.5-32.9,7.5c-9,5-16.3,11.7-21.9,20.1c-5.6,8.4-9.7,18-12.2,28.7
				c-2.6,10.7-3.8,21.8-3.8,33.2C396.8,760.8,398.1,771.4,400.7,781.8z"/>
		</g>
	</g>
	<g id="XMLID_111_">
		<path id="XMLID_26_" class="st2" d="M114,97.7"/>
	</g>
	<g id="XMLID_73_">
		<g id="XMLID_108_">
			<path id="XMLID_109_" class="st3" d="M200.4,442.4c-1.9,2.1-3.8,3.6-5.6,4.4c-1.8,0.8-3.9,1.2-6.4,1.2c-2.4,0-4.6-0.4-6.6-1.3
				c-2-0.8-3.6-2.1-5.1-3.7c-1.4-1.6-2.5-3.6-3.2-6c-0.7-2.3-1.1-4.9-1.1-7.7c0-3.9,0.6-7.2,1.9-9.9c1.3-2.8,3.1-4.9,5.5-6.4
				c2.4-1.5,5.2-2.2,8.5-2.2c2.6,0,4.8,0.4,6.5,1.2c1.8,0.8,3.6,2.3,5.5,4.4l-2.7,2.4c-1-1.2-2-2.1-2.9-2.7c-1-0.7-1.9-1.2-2.9-1.4
				c-1-0.3-2.2-0.4-3.5-0.4c-4.2,0-7.4,1.6-9.6,4.8c-0.9,1.3-1.5,2.7-1.9,4.4c-0.4,1.6-0.6,3.6-0.6,6c0,2.4,0.2,4.4,0.6,6
				c0.4,1.6,1,3.1,1.9,4.4c2.2,3.2,5.4,4.8,9.6,4.8c1.9,0,3.6-0.3,5-1c1.4-0.7,2.9-1.9,4.4-3.6L200.4,442.4z"/>
		</g>
		<g id="XMLID_104_">
			<path id="XMLID_105_" class="st3" d="M253.9,429.3c0,1.9-0.1,3.8-0.4,5.5c-0.2,1.7-0.7,3.4-1.4,5c-0.7,1.6-1.6,3-2.8,4.2
				c-2.7,2.6-6.1,4-10.1,4c-4.1,0-7.4-1.3-10.1-4c-1.2-1.2-2.1-2.6-2.8-4.1c-0.7-1.6-1.1-3.2-1.4-4.9c-0.2-1.7-0.4-3.6-0.4-5.6
				c0-3,0.3-5.8,1-8.3c0.6-2.5,1.8-4.6,3.6-6.3c2.7-2.6,6-4,10.1-4c4.1,0,7.4,1.3,10.1,4c1.2,1.2,2.1,2.6,2.8,4.2s1.1,3.2,1.4,5
				C253.8,425.6,253.9,427.4,253.9,429.3z M250,429.3c0-2.8-0.2-5.2-0.6-7.1c-0.4-2-1.3-3.6-2.6-5c-2-2.1-4.5-3.1-7.5-3.1
				c-3,0-5.5,1-7.5,3.1c-1.3,1.3-2.2,3-2.6,5.1c-0.4,2-0.6,4.4-0.6,7c0,2.6,0.2,5,0.6,7.1c0.4,2,1.3,3.7,2.6,5.1
				c2.1,2.1,4.6,3.1,7.5,3.1c2.9,0,5.4-1,7.5-3.1c1.3-1.3,2.2-3,2.6-5C249.8,434.5,250,432.1,250,429.3z"/>
		</g>
		<g id="XMLID_101_">
			<path id="XMLID_102_" class="st3" d="M309.5,447.5h-3.8V425c0-3.5-0.9-6.2-2.6-8.1c-1.7-1.9-4.2-2.8-7.4-2.8
				c-2.2,0-4,0.4-5.5,1.3c-1.5,0.8-2.7,2.1-3.5,3.7c-0.8,1.6-1.2,3.6-1.2,5.9v22.5h-3.8v-36.3h3.8v4.3c2.7-3.2,6.3-4.7,10.7-4.7
				c4.1,0,7.3,1.2,9.6,3.5c2.5,2.4,3.8,5.7,3.8,10.1V447.5z"/>
		</g>
		<g id="XMLID_98_">
			<path id="XMLID_99_" class="st3" d="M364.4,437.2c0,2.2-0.6,4.1-1.8,5.7s-2.9,2.9-5.1,3.8c-2.2,0.9-4.8,1.3-7.7,1.3
				c-6.2,0-11.1-1.7-14.7-5.2l2.7-2.7c2.8,3,6.8,4.5,11.9,4.5c3.5,0,6.2-0.6,8.1-1.9c1.9-1.2,2.8-3.1,2.8-5.5c0-1.9-0.6-3.3-1.7-4.3
				c-1.1-1-2.9-1.6-5.3-1.8l-6-0.6c-7.3-0.6-11-3.8-11-9.5c0-2.1,0.5-3.9,1.6-5.4c1.1-1.6,2.6-2.8,4.6-3.6c2-0.8,4.3-1.3,6.9-1.3
				c2.6,0,4.9,0.3,7.1,1c2.2,0.7,4.1,1.6,5.6,2.8l-2.6,2.6c-2.8-2.1-6.2-3.1-10.2-3.1c-3,0-5.3,0.6-6.9,1.8
				c-1.6,1.2-2.4,2.9-2.4,5.2c0,1.9,0.6,3.4,1.8,4.3c1.2,1,3.1,1.6,5.6,1.8l5.9,0.5c3.4,0.3,6,1.1,7.9,2.5S364.4,433.9,364.4,437.2z
				"/>
		</g>
		<g id="XMLID_95_">
			<path id="XMLID_96_" class="st3" d="M418.6,447.5h-3.8v-4.3c-2.7,3.2-6.3,4.7-10.7,4.7c-4.1,0-7.3-1.2-9.7-3.5
				c-2.5-2.4-3.8-5.8-3.8-10.1v-23.2h3.9v22.5c0,3.5,0.9,6.2,2.6,8.1c1.7,1.9,4.2,2.8,7.4,2.8c2.2,0,4-0.4,5.5-1.3
				c1.5-0.8,2.7-2.1,3.5-3.7c0.8-1.6,1.2-3.6,1.2-5.9v-22.5h3.8V447.5z"/>
		</g>
		<g id="XMLID_92_">
			<path id="XMLID_93_" class="st3" d="M460.2,447.5h-3.3c-2.8,0-5-0.8-6.5-2.5c-1.5-1.7-2.2-4-2.2-6.9v-44.2h3.8V438
				c0,2.1,0.4,3.7,1.3,4.6c0.8,1,2.3,1.5,4.3,1.5h2.6V447.5z"/>
		</g>
		<g id="XMLID_89_">
			<path id="XMLID_90_" class="st3" d="M498,447.5h-3.3c-1.8,0-3.4-0.4-4.8-1.2c-1.3-0.8-2.3-1.9-3-3.3c-0.7-1.4-1-3.1-1-4.9v-24h-5
				v-2.9h5v-11.6h3.9v11.6h8.2v2.9h-8.2v24c0,4,1.9,6,5.6,6h2.6V447.5z"/>
		</g>
		<g id="XMLID_85_">
			<path id="XMLID_86_" class="st3" d="M551.7,429.3c0,1.9-0.1,3.8-0.4,5.5c-0.2,1.7-0.7,3.4-1.4,5c-0.7,1.6-1.6,3-2.8,4.2
				c-2.7,2.6-6.1,4-10.1,4c-4.1,0-7.4-1.3-10.1-4c-1.2-1.2-2.1-2.6-2.8-4.1c-0.7-1.6-1.1-3.2-1.4-4.9c-0.2-1.7-0.4-3.6-0.4-5.6
				c0-3,0.3-5.8,1-8.3c0.6-2.5,1.8-4.6,3.6-6.3c2.6-2.6,6-4,10.1-4c4.1,0,7.4,1.3,10.1,4c1.2,1.2,2.1,2.6,2.8,4.2
				c0.7,1.6,1.1,3.2,1.4,5C551.6,425.6,551.7,427.4,551.7,429.3z M547.8,429.3c0-2.8-0.2-5.2-0.6-7.1c-0.4-2-1.3-3.6-2.6-5
				c-2-2.1-4.5-3.1-7.5-3.1c-3,0-5.5,1-7.5,3.1c-1.3,1.3-2.2,3-2.6,5.1c-0.4,2-0.6,4.4-0.6,7c0,2.6,0.2,5,0.6,7.1
				c0.4,2,1.3,3.7,2.6,5.1c2.1,2.1,4.6,3.1,7.5,3.1c2.9,0,5.4-1,7.5-3.1c1.3-1.3,2.2-3,2.6-5C547.6,434.5,547.8,432.1,547.8,429.3z"
				/>
		</g>
		<g id="XMLID_82_">
			<path id="XMLID_83_" class="st3" d="M602.5,414.2l-2.8,2.8c-1.1-1.1-2.2-1.9-3.1-2.3c-1-0.4-2.2-0.6-3.8-0.6
				c-1.5,0-2.8,0.3-4.1,0.9c-1.2,0.6-2.3,1.4-3.1,2.4c-0.8,1-1.5,2.2-1.9,3.5c-0.4,1.3-0.6,2.7-0.6,4.2v22.4h-3.8v-36.3h3.8v4.8
				c1.1-1.7,2.6-3,4.5-3.9c1.9-0.9,4-1.4,6.1-1.4c1.8,0,3.4,0.3,4.8,0.8C600,412,601.3,412.9,602.5,414.2z"/>
		</g>
		<g id="XMLID_78_">
			<path id="XMLID_79_" class="st3" d="M635.7,392l-8,11.1h-4.4l7.3-11.1H635.7z M629.1,447.5h-3.8v-36.3h3.8V447.5z"/>
		</g>
		<g id="XMLID_74_">
			<path id="XMLID_75_" class="st3" d="M684,447.5h-3.9v-3.6c-1.5,1.5-3.1,2.6-4.7,3.2c-1.6,0.6-3.7,0.9-6.3,0.9
				c-1.7,0-3.3-0.1-4.6-0.3c-1.3-0.2-2.5-0.6-3.5-1.1c-1-0.5-1.8-1.1-2.6-1.9c-1.7-1.8-2.6-4.2-2.6-7.1c0-3.3,1.1-5.9,3.4-7.7
				c2.2-1.8,5.3-2.7,9.3-2.7h11.7V423c0-3-0.8-5.2-2.4-6.7c-1.6-1.5-4.2-2.2-7.8-2.2c-2.6,0-4.6,0.3-6.1,1c-1.5,0.7-2.8,1.9-4,3.6
				l-2.8-2.4c1-1.4,2.1-2.6,3.3-3.3s2.6-1.3,4.1-1.7c1.6-0.3,3.3-0.5,5.3-0.5c9.4,0,14.1,4,14.1,11.9V447.5z M680.1,434.9v-4.7
				h-11.3c-6.2,0-9.3,2.4-9.3,7.3c0,2.4,0.8,4.2,2.3,5.3c1.5,1.2,3.9,1.7,7.2,1.7c2,0,3.7-0.2,5.1-0.5c1.4-0.4,2.7-1.1,3.9-2.3
				C679.4,440.5,680.1,438.2,680.1,434.9z"/>
		</g>
	</g>
	<g id="XMLID_70_">
		<g id="XMLID_71_">
			<polygon id="XMLID_10_" class="st2" points="47.8,131.8 113.8,65.8 179.7,131.8 179.7,75.8 113.8,9.8 47.8,75.8 			"/>
		</g>
	</g>
	<g id="XMLID_65_">
		<g id="XMLID_66_">
			<path id="XMLID_67_" class="st2 XMLID_67_" d="M788.8,894.8l-68.5-68.5V763l68.5,68.6l68.5-68.6v63.2L788.8,894.8z M725.4,824.1l63.5,63.5
				l63.5-63.5v-48.9l-63.5,63.5l-63.5-63.5V824.1z"/>
		</g>
	</g>
	<g id="XMLID_60_">
		<g id="XMLID_61_">
			<path id="XMLID_62_" class="st1" d="M127.8,879.1H71.1V618.4h56.7 M128.5,666.6v164.3"/>
		</g>
	</g>
	<g id="XMLID_56_">
		<g id="XMLID_57_">
			<path id="XMLID_58_" class="st1" d="M202.2,9.8h57l109.5,174.9l53.7,85.8h-57.3L256.6,96h-0.7L202.2,9.8z"/>
		</g>
	</g>
	<g id="XMLID_51_">
		<g id="XMLID_52_">
			<path id="XMLID_53_" class="st1" d="M538.6,271.4h-56.7V10.7h56.7 M539.3,58.9v164.3"/>
		</g>
	</g>
	<g id="XMLID_47_">
		<g id="XMLID_48_">
			<path id="XMLID_49_" class="st1" d="M817.5,564.7v198.5h-57.3V564.7H817.5z"/>
		</g>
	</g>
	<g id="XMLID_43_">
		<g id="XMLID_44_">
			<path id="XMLID_45_" class="st1" d="M142.7,140v130.5H85.4V140H142.7z"/>
		</g>
	</g>
</g>
</svg>
