<?xml version="1.0" encoding="utf-8"?>
<!-- Generator: Adobe Illustrator 19.0.0, SVG Export Plug-In . SVG Version: 6.00 Build 0)  -->
<svg version="1.1" id="Capa_1" xmlns="http://www.w3.org/2000/svg" xmlns:xlink="http://www.w3.org/1999/xlink" x="0px" y="0px"
	 viewBox="0 0 800 270" style="enable-background:new 0 0 800 270;" xml:space="preserve">
<style type="text/css">
	.st0{opacity:0.5;}
	.st1{fill:none;stroke:#9BB9B7;stroke-width:2;stroke-miterlimit:10;}
	.st2{fill:#FFFFFF;}
	.st3{fill:#BD4539;}
	.st4{opacity:0.4;fill:#FFFFFF;}
</style>
<g id="XMLID_28_" class="st0">
	<line id="XMLID_41_" class="st1" x1="9" y1="74.9" x2="793.4" y2="74.9"/>
	<line id="XMLID_40_" class="st1" x1="9" y1="119.2" x2="793.4" y2="119.2"/>
	<line id="XMLID_39_" class="st1" x1="9" y1="155" x2="793.4" y2="155"/>
	<line id="XMLID_38_" class="st1" x1="9" y1="196.5" x2="793.4" y2="196.5"/>
	<line id="XMLID_37_" class="st1" x1="9" y1="235.2" x2="793.4" y2="235.2"/>
	<line id="XMLID_36_" class="st1" x1="759.5" y1="63.6" x2="759.5" y2="249.3"/>
	<line id="XMLID_35_" class="st1" x1="631.3" y1="63.6" x2="631.3" y2="249.3"/>
	<line id="XMLID_34_" class="st1" x1="573.8" y1="63.6" x2="573.8" y2="249.3"/>
	<line id="XMLID_33_" class="st1" x1="516.2" y1="63.6" x2="516.2" y2="249.3"/>
	<line id="XMLID_32_" class="st1" x1="458.7" y1="63.6" x2="458.7" y2="249.3"/>
	<line id="XMLID_31_" class="st1" x1="378.6" y1="63.6" x2="378.6" y2="249.3"/>
	<line id="XMLID_30_" class="st1" x1="202.3" y1="63.6" x2="202.3" y2="249.3"/>
	<line id="XMLID_29_" class="st1" x1="131.6" y1="63.6" x2="131.6" y2="249.3"/>
</g>
<g id="XMLID_22_">
	<g id="XMLID_26_">
		<circle id="XMLID_27_" class="st2" cx="419.7" cy="104.4" r="30.5"/>
	</g>
	<g id="XMLID_23_">
		<path id="XMLID_24_" class="st3" d="M418.3,99.9c0-2.4-0.1-2.7-2-3.1c-0.5-0.1-0.7-0.4-0.7-0.7c0-0.2,0.5-0.4,0.9-0.4
			c0.5,0,1.6,0.1,2.8,0.1c1.7,0,2.5-0.1,3.3-0.1c0.3,0,0.7,0.2,0.7,0.5c0,0.3-0.4,0.5-0.6,0.5c-1.6,0.4-1.8,0.7-1.8,2.2
			c-0.1,1.2-0.1,4.2-0.1,6.2c0,3.1,0,4.7,0,5c0.1,1.3,0.4,1.6,2.1,2c0.5,0.1,0.7,0.3,0.7,0.6c0,0.4-0.6,0.5-0.9,0.5
			c-0.3,0-2.3-0.1-3.3-0.1c-1,0-2.7,0.2-3.2,0.2c-0.4,0-0.8-0.2-0.8-0.4c0-0.3,0.3-0.5,0.7-0.7c1.5-0.5,1.7-0.8,1.8-1.3
			c0.1-0.6,0.2-4.7,0.2-7.1V99.9z"/>
	</g>
</g>
<g id="XMLID_15_">
	<circle id="XMLID_21_" class="st2" cx="419.7" cy="187" r="30.5"/>
	<g id="XMLID_16_">
		<path id="XMLID_19_" class="st3" d="M412.6,182.4c0-2.4-0.1-2.7-2-3.1c-0.5-0.1-0.7-0.4-0.7-0.7c0-0.2,0.5-0.4,0.9-0.4
			c0.5,0,1.6,0.1,2.8,0.1c1.7,0,2.5-0.1,3.3-0.1c0.3,0,0.7,0.2,0.7,0.5c0,0.3-0.4,0.5-0.6,0.5c-1.6,0.4-1.8,0.7-1.8,2.2
			c-0.1,1.2-0.1,4.2-0.1,6.2c0,3.1,0,4.7,0,5c0.1,1.3,0.4,1.6,2.1,2c0.5,0.1,0.7,0.3,0.7,0.6c0,0.4-0.6,0.5-0.9,0.5
			c-0.3,0-2.3-0.1-3.3-0.1c-1,0-2.7,0.2-3.2,0.2c-0.4,0-0.8-0.2-0.8-0.4c0-0.3,0.3-0.5,0.7-0.7c1.5-0.5,1.7-0.8,1.8-1.3
			c0.1-0.6,0.2-4.7,0.2-7.1V182.4z"/>
		<path id="XMLID_17_" class="st3" d="M424.1,182.4c0-2.4-0.1-2.7-2-3.1c-0.5-0.1-0.7-0.4-0.7-0.7c0-0.2,0.5-0.4,0.9-0.4
			c0.5,0,1.6,0.1,2.8,0.1c1.7,0,2.5-0.1,3.3-0.1c0.3,0,0.7,0.2,0.7,0.5c0,0.3-0.4,0.5-0.6,0.5c-1.6,0.4-1.8,0.7-1.8,2.2
			c-0.1,1.2-0.1,4.2-0.1,6.2c0,3.1,0,4.7,0,5c0.1,1.3,0.4,1.6,2.1,2c0.5,0.1,0.7,0.3,0.7,0.6c0,0.4-0.6,0.5-0.9,0.5
			c-0.3,0-2.3-0.1-3.3-0.1c-1,0-2.7,0.2-3.2,0.2c-0.4,0-0.8-0.2-0.8-0.4c0-0.3,0.3-0.5,0.7-0.7c1.5-0.5,1.7-0.8,1.8-1.3
			c0.1-0.6,0.2-4.7,0.2-7.1V182.4z"/>
	</g>
</g>
<path id="XMLID_12_" class="st4" d="M687,57.3l-0.2-0.2l-0.3,0.2l-0.6-0.8l-11.4-8.3v-0.8c0-6.8,5.5-12.3,12.3-12.3
	c6.8,0,12.3,5.5,12.3,12.3v0.8l-11.4,8.3L687,57.3z M677.5,46.7l9.3,6.8l9.3-6.8c-0.4-4.8-4.4-8.5-9.3-8.5
	C681.8,38.1,677.8,41.9,677.5,46.7z"/>
<path id="XMLID_9_" class="st4" d="M686.7,31c-4.1,0-7.4-3.3-7.4-7.4s3.3-7.4,7.4-7.4s7.4,3.3,7.4,7.4S690.8,31,686.7,31z
	 M686.7,19.2c-2.4,0-4.4,2-4.4,4.4s2,4.4,4.4,4.4s4.4-2,4.4-4.4S689.1,19.2,686.7,19.2z"/>
<g id="XMLID_2_">
	<path id="XMLID_6_" class="st4" d="M716.4,57.3l-0.2-0.2l-0.3,0.2l-0.6-0.8l-11.4-8.3v-0.8c0-6.8,5.5-12.3,12.3-12.3
		c6.8,0,12.3,5.5,12.3,12.3v0.8L717,56.5L716.4,57.3z M706.9,46.7l9.3,6.8l9.3-6.8c-0.4-4.8-4.4-8.5-9.3-8.5
		C711.3,38.1,707.3,41.9,706.9,46.7z"/>
	<path id="XMLID_3_" class="st4" d="M716.2,31c-4.1,0-7.4-3.3-7.4-7.4s3.3-7.4,7.4-7.4c4.1,0,7.4,3.3,7.4,7.4S720.3,31,716.2,31z
		 M716.2,19.2c-2.4,0-4.4,2-4.4,4.4s2,4.4,4.4,4.4c2.4,0,4.4-2,4.4-4.4S718.6,19.2,716.2,19.2z"/>
</g>
</svg>
