<?xml version="1.0" encoding="utf-8"?>
<!-- Generator: Adobe Illustrator 19.0.0, SVG Export Plug-In . SVG Version: 6.00 Build 0)  -->
<svg version="1.1" id="Capa_1" xmlns="http://www.w3.org/2000/svg" xmlns:xlink="http://www.w3.org/1999/xlink" x="0px" y="0px"
	 viewBox="0 0 844 251" style="enable-background:new 0 0 844 251;" xml:space="preserve">
<style type="text/css">
	.st0{opacity:0.5;}
	.st1{fill:none;stroke:#92C1BE;stroke-width:2;stroke-miterlimit:10;}
	.st2{fill:#FFFFFF;}
	.st3{fill:#E74135;}
	.st4{opacity:0.4;fill:#FFFFFF;}
</style>
<g id="XMLID_28_" class="st0">
	<line id="XMLID_41_" class="st1" x1="0" y1="64.2" x2="844.7" y2="64.2"/>
	<line id="XMLID_40_" class="st1" x1="0" y1="111.9" x2="844.7" y2="111.9"/>
	<line id="XMLID_39_" class="st1" x1="0" y1="150.5" x2="844.7" y2="150.5"/>
	<line id="XMLID_38_" class="st1" x1="0" y1="195.1" x2="844.7" y2="195.1"/>
	<line id="XMLID_37_" class="st1" x1="0" y1="236.8" x2="844.7" y2="236.8"/>
	<line id="XMLID_36_" class="st1" x1="808.1" y1="52" x2="808.1" y2="252"/>
	<line id="XMLID_35_" class="st1" x1="670.1" y1="52" x2="670.1" y2="252"/>
	<line id="XMLID_34_" class="st1" x1="608.1" y1="52" x2="608.1" y2="252"/>
	<line id="XMLID_33_" class="st1" x1="546.2" y1="52" x2="546.2" y2="252"/>
	<line id="XMLID_32_" class="st1" x1="484.3" y1="52" x2="484.3" y2="252"/>
	<line id="XMLID_31_" class="st1" x1="398" y1="52" x2="398" y2="252"/>
	<line id="XMLID_30_" class="st1" x1="208.1" y1="52" x2="208.1" y2="252"/>
	<line id="XMLID_29_" class="st1" x1="132" y1="52" x2="132" y2="252"/>
</g>
<g id="XMLID_22_">
	<g id="XMLID_26_">
		<circle id="XMLID_27_" class="st2" cx="93.2" cy="104" r="32.9"/>
	</g>
	<g id="XMLID_23_">
		<path id="XMLID_24_" class="st3" d="M91.8,99.1c0-2.6-0.2-2.9-2.1-3.3c-0.5-0.1-0.8-0.4-0.8-0.7c0-0.2,0.5-0.5,1-0.5
			c0.6,0,1.7,0.1,3,0.1c1.8,0,2.7-0.1,3.5-0.1c0.4,0,0.7,0.2,0.7,0.5c0,0.3-0.4,0.5-0.6,0.5c-1.8,0.5-1.9,0.8-1.9,2.3
			c-0.1,1.2-0.1,4.6-0.1,6.6c0,3.3,0,5,0,5.4c0.1,1.4,0.5,1.7,2.3,2.2c0.6,0.2,0.8,0.4,0.8,0.6c0,0.4-0.6,0.6-1,0.6
			c-0.3,0-2.5-0.1-3.5-0.1c-1.1,0-2.9,0.2-3.4,0.2c-0.4,0-0.8-0.2-0.8-0.5c0-0.3,0.4-0.5,0.8-0.7c1.6-0.5,1.8-0.8,1.9-1.4
			c0.1-0.6,0.2-5.1,0.2-7.6V99.1z"/>
	</g>
</g>
<g id="XMLID_15_">
	<circle id="XMLID_21_" class="st2" cx="93.2" cy="192.9" r="32.9"/>
	<g id="XMLID_16_">
		<path id="XMLID_19_" class="st3" d="M85.6,188c0-2.6-0.2-2.9-2.1-3.3c-0.5-0.1-0.8-0.4-0.8-0.7c0-0.2,0.5-0.5,1-0.5
			c0.6,0,1.7,0.1,3,0.1c1.8,0,2.7-0.1,3.5-0.1c0.4,0,0.7,0.2,0.7,0.5c0,0.3-0.4,0.5-0.6,0.5c-1.8,0.5-1.9,0.8-1.9,2.3
			c-0.1,1.2-0.1,4.6-0.1,6.6c0,3.3,0,5,0,5.4c0.1,1.4,0.5,1.7,2.3,2.2c0.6,0.2,0.8,0.4,0.8,0.6c0,0.4-0.6,0.6-1,0.6
			c-0.3,0-2.5-0.1-3.5-0.1c-1.1,0-2.9,0.2-3.4,0.2c-0.4,0-0.8-0.2-0.8-0.5c0-0.3,0.4-0.5,0.8-0.7c1.6-0.5,1.8-0.8,1.9-1.4
			c0.1-0.6,0.2-5.1,0.2-7.6V188z"/>
		<path id="XMLID_17_" class="st3" d="M97.9,188c0-2.6-0.2-2.9-2.1-3.3c-0.5-0.1-0.8-0.4-0.8-0.7c0-0.2,0.5-0.5,1-0.5
			c0.6,0,1.7,0.1,3,0.1c1.8,0,2.7-0.1,3.5-0.1c0.4,0,0.7,0.2,0.7,0.5c0,0.3-0.4,0.5-0.6,0.5c-1.8,0.5-1.9,0.8-1.9,2.3
			c-0.1,1.2-0.1,4.6-0.1,6.6c0,3.3,0,5,0,5.4c0.1,1.4,0.5,1.7,2.3,2.2c0.6,0.2,0.8,0.4,0.8,0.6c0,0.4-0.6,0.6-1,0.6
			c-0.3,0-2.5-0.1-3.5-0.1c-1.1,0-2.9,0.2-3.4,0.2c-0.4,0-0.8-0.2-0.8-0.5c0-0.3,0.4-0.5,0.8-0.7c1.6-0.5,1.8-0.8,1.9-1.4
			c0.1-0.6,0.2-5.1,0.2-7.6V188z"/>
	</g>
</g>
<path id="XMLID_12_" class="st4" d="M730,45.2l-0.3-0.2l-0.3,0.2l-0.6-0.9l-12.3-9v-0.8c0-7.3,5.9-13.2,13.2-13.2
	c7.3,0,13.2,5.9,13.2,13.2v0.8l-12.3,9L730,45.2z M719.8,33.8l10,7.3l10-7.3c-0.4-5.1-4.7-9.2-10-9.2
	C724.5,24.6,720.2,28.6,719.8,33.8z"/>
<path id="XMLID_9_" class="st4" d="M729.8,16.9c-4.4,0-8-3.6-8-8s3.6-8,8-8s8,3.6,8,8S734.1,16.9,729.8,16.9z M729.8,4.2
	c-2.6,0-4.8,2.1-4.8,4.8s2.1,4.8,4.8,4.8c2.6,0,4.8-2.1,4.8-4.8S732.4,4.2,729.8,4.2z"/>
<g id="XMLID_2_">
	<path id="XMLID_6_" class="st4" d="M761.8,45.2l-0.3-0.2l-0.3,0.2l-0.6-0.9l-12.3-9v-0.8c0-7.3,5.9-13.2,13.2-13.2
		c7.3,0,13.2,5.9,13.2,13.2v0.8l-12.3,9L761.8,45.2z M751.5,33.8l10,7.3l10-7.3c-0.4-5.1-4.7-9.2-10-9.2
		C756.3,24.6,752,28.6,751.5,33.8z"/>
	<path id="XMLID_3_" class="st4" d="M761.5,16.9c-4.4,0-8-3.6-8-8s3.6-8,8-8s8,3.6,8,8S765.9,16.9,761.5,16.9z M761.5,4.2
		c-2.6,0-4.8,2.1-4.8,4.8s2.1,4.8,4.8,4.8c2.6,0,4.8-2.1,4.8-4.8S764.1,4.2,761.5,4.2z"/>
</g>
</svg>
